<mxfile host="app.diagrams.net" agent="Mozilla/5.0 (Windows NT 10.0; Win64; x64) AppleWebKit/537.36 (KHTML, like Gecko) Chrome/131.0.0.0 Safari/537.36" version="25.0.1">
  <diagram id="C5RBs43oDa-KdzZeNtuy" name="Page-1">
    <mxGraphModel dx="2390" dy="1287" grid="1" gridSize="10" guides="1" tooltips="1" connect="1" arrows="1" fold="1" page="1" pageScale="1" pageWidth="827" pageHeight="1169" math="0" shadow="0">
      <root>
        <mxCell id="WIyWlLk6GJQsqaUBKTNV-0" />
        <mxCell id="WIyWlLk6GJQsqaUBKTNV-1" parent="WIyWlLk6GJQsqaUBKTNV-0" />
        <mxCell id="WMfJV7rpTqCxI9mNvm0j-2" value="" style="edgeStyle=orthogonalEdgeStyle;rounded=0;orthogonalLoop=1;jettySize=auto;html=1;" edge="1" parent="WIyWlLk6GJQsqaUBKTNV-1" source="WMfJV7rpTqCxI9mNvm0j-0" target="WMfJV7rpTqCxI9mNvm0j-1">
          <mxGeometry relative="1" as="geometry" />
        </mxCell>
        <mxCell id="WMfJV7rpTqCxI9mNvm0j-0" value="회원가입" style="rounded=1;whiteSpace=wrap;html=1;" vertex="1" parent="WIyWlLk6GJQsqaUBKTNV-1">
          <mxGeometry x="230" y="200" width="120" height="60" as="geometry" />
        </mxCell>
        <mxCell id="WMfJV7rpTqCxI9mNvm0j-9" value="" style="edgeStyle=orthogonalEdgeStyle;rounded=0;orthogonalLoop=1;jettySize=auto;html=1;" edge="1" parent="WIyWlLk6GJQsqaUBKTNV-1" source="WMfJV7rpTqCxI9mNvm0j-1" target="WMfJV7rpTqCxI9mNvm0j-3">
          <mxGeometry relative="1" as="geometry" />
        </mxCell>
        <mxCell id="WMfJV7rpTqCxI9mNvm0j-1" value="&lt;b&gt;설문 / 레벨 테스트&lt;/b&gt;" style="whiteSpace=wrap;html=1;rounded=0;" vertex="1" parent="WIyWlLk6GJQsqaUBKTNV-1">
          <mxGeometry x="230" y="280" width="120" height="60" as="geometry" />
        </mxCell>
        <mxCell id="WMfJV7rpTqCxI9mNvm0j-11" value="" style="edgeStyle=orthogonalEdgeStyle;rounded=0;orthogonalLoop=1;jettySize=auto;html=1;" edge="1" parent="WIyWlLk6GJQsqaUBKTNV-1" source="WMfJV7rpTqCxI9mNvm0j-3" target="WMfJV7rpTqCxI9mNvm0j-10">
          <mxGeometry relative="1" as="geometry" />
        </mxCell>
        <mxCell id="WMfJV7rpTqCxI9mNvm0j-16" style="edgeStyle=orthogonalEdgeStyle;rounded=0;orthogonalLoop=1;jettySize=auto;html=1;exitX=0.5;exitY=1;exitDx=0;exitDy=0;" edge="1" parent="WIyWlLk6GJQsqaUBKTNV-1" source="WMfJV7rpTqCxI9mNvm0j-3" target="WMfJV7rpTqCxI9mNvm0j-14">
          <mxGeometry relative="1" as="geometry">
            <mxPoint x="470" y="390" as="sourcePoint" />
          </mxGeometry>
        </mxCell>
        <mxCell id="WMfJV7rpTqCxI9mNvm0j-42" style="edgeStyle=orthogonalEdgeStyle;rounded=0;orthogonalLoop=1;jettySize=auto;html=1;entryX=0.5;entryY=0;entryDx=0;entryDy=0;exitX=0.5;exitY=1;exitDx=0;exitDy=0;" edge="1" parent="WIyWlLk6GJQsqaUBKTNV-1" source="WMfJV7rpTqCxI9mNvm0j-3" target="WMfJV7rpTqCxI9mNvm0j-13">
          <mxGeometry relative="1" as="geometry" />
        </mxCell>
        <mxCell id="WMfJV7rpTqCxI9mNvm0j-3" value="&lt;b&gt;메인 페이지&lt;/b&gt;" style="rounded=0;whiteSpace=wrap;html=1;" vertex="1" parent="WIyWlLk6GJQsqaUBKTNV-1">
          <mxGeometry x="410" y="280" width="120" height="60" as="geometry" />
        </mxCell>
        <mxCell id="WMfJV7rpTqCxI9mNvm0j-8" value="" style="edgeStyle=orthogonalEdgeStyle;rounded=0;orthogonalLoop=1;jettySize=auto;html=1;" edge="1" parent="WIyWlLk6GJQsqaUBKTNV-1" source="WMfJV7rpTqCxI9mNvm0j-4" target="WMfJV7rpTqCxI9mNvm0j-3">
          <mxGeometry relative="1" as="geometry" />
        </mxCell>
        <mxCell id="WMfJV7rpTqCxI9mNvm0j-4" value="로그인" style="rounded=1;whiteSpace=wrap;html=1;" vertex="1" parent="WIyWlLk6GJQsqaUBKTNV-1">
          <mxGeometry x="410" y="200" width="120" height="60" as="geometry" />
        </mxCell>
        <mxCell id="WMfJV7rpTqCxI9mNvm0j-6" value="" style="edgeStyle=orthogonalEdgeStyle;rounded=0;orthogonalLoop=1;jettySize=auto;html=1;exitX=1;exitY=0.5;exitDx=0;exitDy=0;" edge="1" parent="WIyWlLk6GJQsqaUBKTNV-1" source="WMfJV7rpTqCxI9mNvm0j-37" target="WMfJV7rpTqCxI9mNvm0j-4">
          <mxGeometry relative="1" as="geometry">
            <mxPoint x="380" y="200" as="sourcePoint" />
          </mxGeometry>
        </mxCell>
        <mxCell id="WMfJV7rpTqCxI9mNvm0j-7" style="edgeStyle=orthogonalEdgeStyle;rounded=0;orthogonalLoop=1;jettySize=auto;html=1;entryX=0.5;entryY=0;entryDx=0;entryDy=0;exitX=0;exitY=0.5;exitDx=0;exitDy=0;" edge="1" parent="WIyWlLk6GJQsqaUBKTNV-1" source="WMfJV7rpTqCxI9mNvm0j-37" target="WMfJV7rpTqCxI9mNvm0j-0">
          <mxGeometry relative="1" as="geometry" />
        </mxCell>
        <mxCell id="WMfJV7rpTqCxI9mNvm0j-5" value="접속" style="rounded=1;whiteSpace=wrap;html=1;shape=label;aspect=fixed;arcSize=50;" vertex="1" parent="WIyWlLk6GJQsqaUBKTNV-1">
          <mxGeometry x="315" y="30" width="120" height="60" as="geometry" />
        </mxCell>
        <mxCell id="WMfJV7rpTqCxI9mNvm0j-21" value="" style="edgeStyle=orthogonalEdgeStyle;rounded=0;orthogonalLoop=1;jettySize=auto;html=1;" edge="1" parent="WIyWlLk6GJQsqaUBKTNV-1" source="WMfJV7rpTqCxI9mNvm0j-10" target="WMfJV7rpTqCxI9mNvm0j-20">
          <mxGeometry relative="1" as="geometry" />
        </mxCell>
        <mxCell id="WMfJV7rpTqCxI9mNvm0j-22" value="" style="edgeStyle=orthogonalEdgeStyle;rounded=0;orthogonalLoop=1;jettySize=auto;html=1;" edge="1" parent="WIyWlLk6GJQsqaUBKTNV-1" source="WMfJV7rpTqCxI9mNvm0j-10" target="WMfJV7rpTqCxI9mNvm0j-20">
          <mxGeometry relative="1" as="geometry" />
        </mxCell>
        <mxCell id="WMfJV7rpTqCxI9mNvm0j-24" style="edgeStyle=orthogonalEdgeStyle;rounded=0;orthogonalLoop=1;jettySize=auto;html=1;exitX=0.5;exitY=1;exitDx=0;exitDy=0;" edge="1" parent="WIyWlLk6GJQsqaUBKTNV-1" source="WMfJV7rpTqCxI9mNvm0j-10" target="WMfJV7rpTqCxI9mNvm0j-23">
          <mxGeometry relative="1" as="geometry" />
        </mxCell>
        <mxCell id="WMfJV7rpTqCxI9mNvm0j-26" style="edgeStyle=orthogonalEdgeStyle;rounded=0;orthogonalLoop=1;jettySize=auto;html=1;exitX=0.5;exitY=1;exitDx=0;exitDy=0;" edge="1" parent="WIyWlLk6GJQsqaUBKTNV-1" source="WMfJV7rpTqCxI9mNvm0j-10" target="WMfJV7rpTqCxI9mNvm0j-25">
          <mxGeometry relative="1" as="geometry" />
        </mxCell>
        <mxCell id="WMfJV7rpTqCxI9mNvm0j-10" value="&lt;b&gt;파트별 집중학습&lt;/b&gt;&lt;br&gt;클릭" style="whiteSpace=wrap;html=1;rounded=1;" vertex="1" parent="WIyWlLk6GJQsqaUBKTNV-1">
          <mxGeometry x="410" y="400" width="120" height="60" as="geometry" />
        </mxCell>
        <mxCell id="WMfJV7rpTqCxI9mNvm0j-13" value="&lt;b&gt;추천 단어장&lt;/b&gt;&lt;br&gt;클릭" style="whiteSpace=wrap;html=1;rounded=1;" vertex="1" parent="WIyWlLk6GJQsqaUBKTNV-1">
          <mxGeometry x="550" y="400" width="120" height="60" as="geometry" />
        </mxCell>
        <mxCell id="WMfJV7rpTqCxI9mNvm0j-14" value="&lt;b&gt;모의고사 응시&lt;/b&gt;&lt;br&gt;클릭" style="whiteSpace=wrap;html=1;rounded=1;" vertex="1" parent="WIyWlLk6GJQsqaUBKTNV-1">
          <mxGeometry x="260" y="400" width="120" height="60" as="geometry" />
        </mxCell>
        <mxCell id="WMfJV7rpTqCxI9mNvm0j-20" value="Part 2" style="whiteSpace=wrap;html=1;rounded=1;" vertex="1" parent="WIyWlLk6GJQsqaUBKTNV-1">
          <mxGeometry x="410" y="530" width="120" height="60" as="geometry" />
        </mxCell>
        <mxCell id="WMfJV7rpTqCxI9mNvm0j-23" value="Part 1" style="whiteSpace=wrap;html=1;rounded=1;" vertex="1" parent="WIyWlLk6GJQsqaUBKTNV-1">
          <mxGeometry x="270" y="530" width="120" height="60" as="geometry" />
        </mxCell>
        <mxCell id="WMfJV7rpTqCxI9mNvm0j-25" value="Part 2" style="whiteSpace=wrap;html=1;rounded=1;" vertex="1" parent="WIyWlLk6GJQsqaUBKTNV-1">
          <mxGeometry x="540" y="530" width="120" height="60" as="geometry" />
        </mxCell>
        <mxCell id="WMfJV7rpTqCxI9mNvm0j-27" value="&lt;font style=&quot;font-size: 25px;&quot;&gt;&lt;b&gt;메인 플로우&lt;/b&gt;&lt;/font&gt;" style="text;html=1;align=center;verticalAlign=middle;whiteSpace=wrap;rounded=0;" vertex="1" parent="WIyWlLk6GJQsqaUBKTNV-1">
          <mxGeometry x="40" y="30" width="150" height="30" as="geometry" />
        </mxCell>
        <mxCell id="WMfJV7rpTqCxI9mNvm0j-28" value="&lt;font style=&quot;&quot;&gt;&lt;b style=&quot;font-size: 25px;&quot;&gt;음성인식 플로우&lt;/b&gt;&lt;br&gt;&lt;font style=&quot;font-size: 20px;&quot;&gt;(레벨테스트 및 모든 학습 단계에 적용)&lt;/font&gt;&lt;/font&gt;" style="text;html=1;align=left;verticalAlign=middle;whiteSpace=wrap;rounded=0;" vertex="1" parent="WIyWlLk6GJQsqaUBKTNV-1">
          <mxGeometry x="20" y="620" width="370" height="120" as="geometry" />
        </mxCell>
        <mxCell id="WMfJV7rpTqCxI9mNvm0j-33" value="" style="edgeStyle=orthogonalEdgeStyle;rounded=0;orthogonalLoop=1;jettySize=auto;html=1;" edge="1" parent="WIyWlLk6GJQsqaUBKTNV-1" source="WMfJV7rpTqCxI9mNvm0j-29" target="WMfJV7rpTqCxI9mNvm0j-31">
          <mxGeometry relative="1" as="geometry" />
        </mxCell>
        <mxCell id="WMfJV7rpTqCxI9mNvm0j-29" value="학습 선택" style="rounded=1;whiteSpace=wrap;html=1;shape=label;aspect=fixed;arcSize=50;" vertex="1" parent="WIyWlLk6GJQsqaUBKTNV-1">
          <mxGeometry x="300" y="760" width="120" height="60" as="geometry" />
        </mxCell>
        <mxCell id="WMfJV7rpTqCxI9mNvm0j-34" value="" style="edgeStyle=orthogonalEdgeStyle;rounded=0;orthogonalLoop=1;jettySize=auto;html=1;" edge="1" parent="WIyWlLk6GJQsqaUBKTNV-1" source="WMfJV7rpTqCxI9mNvm0j-31" target="WMfJV7rpTqCxI9mNvm0j-32">
          <mxGeometry relative="1" as="geometry" />
        </mxCell>
        <mxCell id="WMfJV7rpTqCxI9mNvm0j-31" value="DB - 문장 반환" style="shape=cylinder3;whiteSpace=wrap;html=1;boundedLbl=1;backgroundOutline=1;size=15;" vertex="1" parent="WIyWlLk6GJQsqaUBKTNV-1">
          <mxGeometry x="275" y="910" width="170" height="80" as="geometry" />
        </mxCell>
        <mxCell id="WMfJV7rpTqCxI9mNvm0j-36" value="" style="edgeStyle=orthogonalEdgeStyle;rounded=0;orthogonalLoop=1;jettySize=auto;html=1;" edge="1" parent="WIyWlLk6GJQsqaUBKTNV-1" source="WMfJV7rpTqCxI9mNvm0j-32" target="WMfJV7rpTqCxI9mNvm0j-35">
          <mxGeometry relative="1" as="geometry" />
        </mxCell>
        <mxCell id="WMfJV7rpTqCxI9mNvm0j-32" value="녹음&lt;br&gt;(음성 인식)" style="shape=parallelogram;perimeter=parallelogramPerimeter;whiteSpace=wrap;html=1;fixedSize=1;" vertex="1" parent="WIyWlLk6GJQsqaUBKTNV-1">
          <mxGeometry x="300" y="1010" width="120" height="60" as="geometry" />
        </mxCell>
        <mxCell id="WMfJV7rpTqCxI9mNvm0j-35" value="음성 인식" style="shape=parallelogram;perimeter=parallelogramPerimeter;whiteSpace=wrap;html=1;fixedSize=1;" vertex="1" parent="WIyWlLk6GJQsqaUBKTNV-1">
          <mxGeometry x="300" y="1100" width="120" height="60" as="geometry" />
        </mxCell>
        <mxCell id="WMfJV7rpTqCxI9mNvm0j-38" value="" style="edgeStyle=orthogonalEdgeStyle;rounded=0;orthogonalLoop=1;jettySize=auto;html=1;entryX=0.5;entryY=0;entryDx=0;entryDy=0;" edge="1" parent="WIyWlLk6GJQsqaUBKTNV-1" source="WMfJV7rpTqCxI9mNvm0j-5" target="WMfJV7rpTqCxI9mNvm0j-37">
          <mxGeometry relative="1" as="geometry">
            <mxPoint x="380" y="100" as="sourcePoint" />
            <mxPoint x="290" y="260" as="targetPoint" />
          </mxGeometry>
        </mxCell>
        <mxCell id="WMfJV7rpTqCxI9mNvm0j-37" value="회원&lt;br&gt;유무" style="rhombus;whiteSpace=wrap;html=1;" vertex="1" parent="WIyWlLk6GJQsqaUBKTNV-1">
          <mxGeometry x="330" y="120" width="90" height="80" as="geometry" />
        </mxCell>
        <mxCell id="WMfJV7rpTqCxI9mNvm0j-40" value="YES" style="text;html=1;align=center;verticalAlign=middle;whiteSpace=wrap;rounded=0;" vertex="1" parent="WIyWlLk6GJQsqaUBKTNV-1">
          <mxGeometry x="420" y="130" width="60" height="30" as="geometry" />
        </mxCell>
        <mxCell id="WMfJV7rpTqCxI9mNvm0j-41" value="NO" style="text;html=1;align=center;verticalAlign=middle;whiteSpace=wrap;rounded=0;" vertex="1" parent="WIyWlLk6GJQsqaUBKTNV-1">
          <mxGeometry x="280" y="130" width="60" height="30" as="geometry" />
        </mxCell>
        <mxCell id="WMfJV7rpTqCxI9mNvm0j-43" value="&lt;font style=&quot;&quot;&gt;&lt;b style=&quot;font-size: 25px;&quot;&gt;1. 모의고사 플로우&lt;/b&gt;&lt;br&gt;&lt;/font&gt;" style="text;html=1;align=left;verticalAlign=middle;whiteSpace=wrap;rounded=0;" vertex="1" parent="WIyWlLk6GJQsqaUBKTNV-1">
          <mxGeometry x="30" y="1270" width="230" height="40" as="geometry" />
        </mxCell>
        <mxCell id="WMfJV7rpTqCxI9mNvm0j-46" value="" style="edgeStyle=orthogonalEdgeStyle;rounded=0;orthogonalLoop=1;jettySize=auto;html=1;" edge="1" parent="WIyWlLk6GJQsqaUBKTNV-1" source="WMfJV7rpTqCxI9mNvm0j-44" target="WMfJV7rpTqCxI9mNvm0j-45">
          <mxGeometry relative="1" as="geometry" />
        </mxCell>
        <mxCell id="WMfJV7rpTqCxI9mNvm0j-44" value="&lt;font style=&quot;font-size: 16px;&quot;&gt;Part 1&lt;/font&gt;" style="ellipse;whiteSpace=wrap;html=1;strokeWidth=1;" vertex="1" parent="WIyWlLk6GJQsqaUBKTNV-1">
          <mxGeometry x="59" y="1435" width="120" height="80" as="geometry" />
        </mxCell>
        <mxCell id="WMfJV7rpTqCxI9mNvm0j-48" value="" style="edgeStyle=orthogonalEdgeStyle;rounded=0;orthogonalLoop=1;jettySize=auto;html=1;" edge="1" parent="WIyWlLk6GJQsqaUBKTNV-1" source="WMfJV7rpTqCxI9mNvm0j-45" target="WMfJV7rpTqCxI9mNvm0j-47">
          <mxGeometry relative="1" as="geometry" />
        </mxCell>
        <mxCell id="WMfJV7rpTqCxI9mNvm0j-80" style="edgeStyle=orthogonalEdgeStyle;rounded=0;orthogonalLoop=1;jettySize=auto;html=1;entryX=0.5;entryY=0;entryDx=0;entryDy=0;" edge="1" parent="WIyWlLk6GJQsqaUBKTNV-1" source="WMfJV7rpTqCxI9mNvm0j-45" target="WMfJV7rpTqCxI9mNvm0j-63">
          <mxGeometry relative="1" as="geometry">
            <Array as="points">
              <mxPoint x="264" y="1550" />
              <mxPoint x="119" y="1550" />
            </Array>
          </mxGeometry>
        </mxCell>
        <mxCell id="WMfJV7rpTqCxI9mNvm0j-45" value="풀이한 &lt;br&gt;문항 개수&lt;div&gt;= 2&lt;/div&gt;" style="rhombus;whiteSpace=wrap;html=1;strokeWidth=1;" vertex="1" parent="WIyWlLk6GJQsqaUBKTNV-1">
          <mxGeometry x="204" y="1420" width="120" height="110" as="geometry" />
        </mxCell>
        <mxCell id="WMfJV7rpTqCxI9mNvm0j-91" value="" style="edgeStyle=orthogonalEdgeStyle;rounded=0;orthogonalLoop=1;jettySize=auto;html=1;" edge="1" parent="WIyWlLk6GJQsqaUBKTNV-1" source="WMfJV7rpTqCxI9mNvm0j-47" target="WMfJV7rpTqCxI9mNvm0j-49">
          <mxGeometry relative="1" as="geometry" />
        </mxCell>
        <mxCell id="WMfJV7rpTqCxI9mNvm0j-47" value="문장 출력" style="whiteSpace=wrap;html=1;strokeWidth=1;shape=document;boundedLbl=1;" vertex="1" parent="WIyWlLk6GJQsqaUBKTNV-1">
          <mxGeometry x="360" y="1445" width="120" height="60" as="geometry" />
        </mxCell>
        <mxCell id="WMfJV7rpTqCxI9mNvm0j-55" value="" style="edgeStyle=orthogonalEdgeStyle;rounded=0;orthogonalLoop=1;jettySize=auto;html=1;" edge="1" parent="WIyWlLk6GJQsqaUBKTNV-1" source="WMfJV7rpTqCxI9mNvm0j-49" target="WMfJV7rpTqCxI9mNvm0j-54">
          <mxGeometry relative="1" as="geometry" />
        </mxCell>
        <mxCell id="WMfJV7rpTqCxI9mNvm0j-49" value="녹음&lt;br&gt;(음성 인식)" style="whiteSpace=wrap;html=1;strokeWidth=1;fontStyle=1" vertex="1" parent="WIyWlLk6GJQsqaUBKTNV-1">
          <mxGeometry x="497" y="1445" width="120" height="60" as="geometry" />
        </mxCell>
        <mxCell id="WMfJV7rpTqCxI9mNvm0j-56" style="edgeStyle=orthogonalEdgeStyle;rounded=0;orthogonalLoop=1;jettySize=auto;html=1;exitX=0.5;exitY=1;exitDx=0;exitDy=0;" edge="1" parent="WIyWlLk6GJQsqaUBKTNV-1" source="WMfJV7rpTqCxI9mNvm0j-54" target="WMfJV7rpTqCxI9mNvm0j-45">
          <mxGeometry relative="1" as="geometry">
            <mxPoint x="259" y="1420" as="targetPoint" />
            <Array as="points">
              <mxPoint x="709" y="1390" />
              <mxPoint x="264" y="1390" />
            </Array>
          </mxGeometry>
        </mxCell>
        <mxCell id="WMfJV7rpTqCxI9mNvm0j-54" value="점수 계산" style="whiteSpace=wrap;html=1;strokeWidth=1;" vertex="1" parent="WIyWlLk6GJQsqaUBKTNV-1">
          <mxGeometry x="649" y="1445" width="120" height="60" as="geometry" />
        </mxCell>
        <mxCell id="WMfJV7rpTqCxI9mNvm0j-84" value="" style="edgeStyle=orthogonalEdgeStyle;rounded=0;orthogonalLoop=1;jettySize=auto;html=1;" edge="1" parent="WIyWlLk6GJQsqaUBKTNV-1" source="WMfJV7rpTqCxI9mNvm0j-61" target="WMfJV7rpTqCxI9mNvm0j-44">
          <mxGeometry relative="1" as="geometry" />
        </mxCell>
        <mxCell id="WMfJV7rpTqCxI9mNvm0j-61" value="&lt;font style=&quot;font-size: 16px;&quot;&gt;모의고사&lt;br&gt;&lt;/font&gt;" style="ellipse;whiteSpace=wrap;html=1;" vertex="1" parent="WIyWlLk6GJQsqaUBKTNV-1">
          <mxGeometry x="59" y="1320" width="120" height="80" as="geometry" />
        </mxCell>
        <mxCell id="WMfJV7rpTqCxI9mNvm0j-62" value="" style="edgeStyle=orthogonalEdgeStyle;rounded=0;orthogonalLoop=1;jettySize=auto;html=1;" edge="1" source="WMfJV7rpTqCxI9mNvm0j-63" target="WMfJV7rpTqCxI9mNvm0j-65" parent="WIyWlLk6GJQsqaUBKTNV-1">
          <mxGeometry relative="1" as="geometry" />
        </mxCell>
        <mxCell id="WMfJV7rpTqCxI9mNvm0j-63" value="&lt;font style=&quot;font-size: 16px;&quot;&gt;Part 2&lt;/font&gt;" style="ellipse;whiteSpace=wrap;html=1;strokeWidth=1;" vertex="1" parent="WIyWlLk6GJQsqaUBKTNV-1">
          <mxGeometry x="59" y="1595" width="120" height="80" as="geometry" />
        </mxCell>
        <mxCell id="WMfJV7rpTqCxI9mNvm0j-64" value="" style="edgeStyle=orthogonalEdgeStyle;rounded=0;orthogonalLoop=1;jettySize=auto;html=1;" edge="1" source="WMfJV7rpTqCxI9mNvm0j-65" target="WMfJV7rpTqCxI9mNvm0j-66" parent="WIyWlLk6GJQsqaUBKTNV-1">
          <mxGeometry relative="1" as="geometry" />
        </mxCell>
        <mxCell id="WMfJV7rpTqCxI9mNvm0j-81" style="edgeStyle=orthogonalEdgeStyle;rounded=0;orthogonalLoop=1;jettySize=auto;html=1;" edge="1" parent="WIyWlLk6GJQsqaUBKTNV-1" source="WMfJV7rpTqCxI9mNvm0j-65" target="WMfJV7rpTqCxI9mNvm0j-72">
          <mxGeometry relative="1" as="geometry">
            <Array as="points">
              <mxPoint x="264" y="1710" />
              <mxPoint x="119" y="1710" />
            </Array>
          </mxGeometry>
        </mxCell>
        <mxCell id="WMfJV7rpTqCxI9mNvm0j-65" value="풀이한 &lt;br&gt;문항 개수&lt;div&gt;&amp;lt; 2&lt;/div&gt;" style="rhombus;whiteSpace=wrap;html=1;strokeWidth=1;" vertex="1" parent="WIyWlLk6GJQsqaUBKTNV-1">
          <mxGeometry x="204" y="1580" width="120" height="110" as="geometry" />
        </mxCell>
        <mxCell id="WMfJV7rpTqCxI9mNvm0j-92" value="" style="edgeStyle=orthogonalEdgeStyle;rounded=0;orthogonalLoop=1;jettySize=auto;html=1;" edge="1" parent="WIyWlLk6GJQsqaUBKTNV-1" source="WMfJV7rpTqCxI9mNvm0j-66" target="WMfJV7rpTqCxI9mNvm0j-68">
          <mxGeometry relative="1" as="geometry" />
        </mxCell>
        <mxCell id="WMfJV7rpTqCxI9mNvm0j-66" value="그림 출력" style="whiteSpace=wrap;html=1;strokeWidth=1;shape=document;boundedLbl=1;" vertex="1" parent="WIyWlLk6GJQsqaUBKTNV-1">
          <mxGeometry x="349" y="1605" width="120" height="60" as="geometry" />
        </mxCell>
        <mxCell id="WMfJV7rpTqCxI9mNvm0j-67" value="" style="edgeStyle=orthogonalEdgeStyle;rounded=0;orthogonalLoop=1;jettySize=auto;html=1;" edge="1" source="WMfJV7rpTqCxI9mNvm0j-68" target="WMfJV7rpTqCxI9mNvm0j-70" parent="WIyWlLk6GJQsqaUBKTNV-1">
          <mxGeometry relative="1" as="geometry" />
        </mxCell>
        <mxCell id="WMfJV7rpTqCxI9mNvm0j-68" value="녹음&lt;br&gt;(음성 인식)" style="whiteSpace=wrap;html=1;strokeWidth=1;fontStyle=1" vertex="1" parent="WIyWlLk6GJQsqaUBKTNV-1">
          <mxGeometry x="497" y="1606" width="120" height="60" as="geometry" />
        </mxCell>
        <mxCell id="WMfJV7rpTqCxI9mNvm0j-69" style="edgeStyle=orthogonalEdgeStyle;rounded=0;orthogonalLoop=1;jettySize=auto;html=1;exitX=0.5;exitY=1;exitDx=0;exitDy=0;" edge="1" source="WMfJV7rpTqCxI9mNvm0j-70" target="WMfJV7rpTqCxI9mNvm0j-65" parent="WIyWlLk6GJQsqaUBKTNV-1">
          <mxGeometry relative="1" as="geometry">
            <mxPoint x="259" y="1580" as="targetPoint" />
            <Array as="points">
              <mxPoint x="709" y="1560" />
              <mxPoint x="264" y="1560" />
            </Array>
          </mxGeometry>
        </mxCell>
        <mxCell id="WMfJV7rpTqCxI9mNvm0j-70" value="점수 계산" style="whiteSpace=wrap;html=1;strokeWidth=1;" vertex="1" parent="WIyWlLk6GJQsqaUBKTNV-1">
          <mxGeometry x="649" y="1605" width="120" height="60" as="geometry" />
        </mxCell>
        <mxCell id="WMfJV7rpTqCxI9mNvm0j-71" value="" style="edgeStyle=orthogonalEdgeStyle;rounded=0;orthogonalLoop=1;jettySize=auto;html=1;" edge="1" source="WMfJV7rpTqCxI9mNvm0j-72" target="WMfJV7rpTqCxI9mNvm0j-74" parent="WIyWlLk6GJQsqaUBKTNV-1">
          <mxGeometry relative="1" as="geometry" />
        </mxCell>
        <mxCell id="WMfJV7rpTqCxI9mNvm0j-72" value="&lt;font style=&quot;font-size: 16px;&quot;&gt;Part 3&lt;/font&gt;" style="ellipse;whiteSpace=wrap;html=1;strokeWidth=1;" vertex="1" parent="WIyWlLk6GJQsqaUBKTNV-1">
          <mxGeometry x="59" y="1755" width="120" height="80" as="geometry" />
        </mxCell>
        <mxCell id="WMfJV7rpTqCxI9mNvm0j-73" value="" style="edgeStyle=orthogonalEdgeStyle;rounded=0;orthogonalLoop=1;jettySize=auto;html=1;" edge="1" source="WMfJV7rpTqCxI9mNvm0j-74" target="WMfJV7rpTqCxI9mNvm0j-75" parent="WIyWlLk6GJQsqaUBKTNV-1">
          <mxGeometry relative="1" as="geometry" />
        </mxCell>
        <mxCell id="WMfJV7rpTqCxI9mNvm0j-89" value="" style="edgeStyle=orthogonalEdgeStyle;rounded=0;orthogonalLoop=1;jettySize=auto;html=1;" edge="1" parent="WIyWlLk6GJQsqaUBKTNV-1" source="WMfJV7rpTqCxI9mNvm0j-74" target="WMfJV7rpTqCxI9mNvm0j-88">
          <mxGeometry relative="1" as="geometry" />
        </mxCell>
        <mxCell id="WMfJV7rpTqCxI9mNvm0j-74" value="풀이한 &lt;br&gt;문항 개수&lt;div&gt;&amp;lt; 3&lt;/div&gt;" style="rhombus;whiteSpace=wrap;html=1;strokeWidth=1;" vertex="1" parent="WIyWlLk6GJQsqaUBKTNV-1">
          <mxGeometry x="204" y="1740" width="120" height="110" as="geometry" />
        </mxCell>
        <mxCell id="WMfJV7rpTqCxI9mNvm0j-93" value="" style="edgeStyle=orthogonalEdgeStyle;rounded=0;orthogonalLoop=1;jettySize=auto;html=1;" edge="1" parent="WIyWlLk6GJQsqaUBKTNV-1" source="WMfJV7rpTqCxI9mNvm0j-75" target="WMfJV7rpTqCxI9mNvm0j-77">
          <mxGeometry relative="1" as="geometry" />
        </mxCell>
        <mxCell id="WMfJV7rpTqCxI9mNvm0j-75" value="지문 및 문장 출력" style="whiteSpace=wrap;html=1;strokeWidth=1;shape=document;boundedLbl=1;" vertex="1" parent="WIyWlLk6GJQsqaUBKTNV-1">
          <mxGeometry x="349" y="1765" width="120" height="60" as="geometry" />
        </mxCell>
        <mxCell id="WMfJV7rpTqCxI9mNvm0j-76" value="" style="edgeStyle=orthogonalEdgeStyle;rounded=0;orthogonalLoop=1;jettySize=auto;html=1;" edge="1" source="WMfJV7rpTqCxI9mNvm0j-77" target="WMfJV7rpTqCxI9mNvm0j-79" parent="WIyWlLk6GJQsqaUBKTNV-1">
          <mxGeometry relative="1" as="geometry" />
        </mxCell>
        <mxCell id="WMfJV7rpTqCxI9mNvm0j-77" value="녹음&lt;br&gt;(음성 인식)" style="whiteSpace=wrap;html=1;strokeWidth=1;fontStyle=1" vertex="1" parent="WIyWlLk6GJQsqaUBKTNV-1">
          <mxGeometry x="497" y="1766" width="120" height="60" as="geometry" />
        </mxCell>
        <mxCell id="WMfJV7rpTqCxI9mNvm0j-78" style="edgeStyle=orthogonalEdgeStyle;rounded=0;orthogonalLoop=1;jettySize=auto;html=1;exitX=0.5;exitY=1;exitDx=0;exitDy=0;" edge="1" source="WMfJV7rpTqCxI9mNvm0j-79" target="WMfJV7rpTqCxI9mNvm0j-74" parent="WIyWlLk6GJQsqaUBKTNV-1">
          <mxGeometry relative="1" as="geometry">
            <mxPoint x="259" y="1740" as="targetPoint" />
            <Array as="points">
              <mxPoint x="709" y="1720" />
              <mxPoint x="264" y="1720" />
            </Array>
          </mxGeometry>
        </mxCell>
        <mxCell id="WMfJV7rpTqCxI9mNvm0j-79" value="점수 계산" style="whiteSpace=wrap;html=1;strokeWidth=1;" vertex="1" parent="WIyWlLk6GJQsqaUBKTNV-1">
          <mxGeometry x="649" y="1765" width="120" height="60" as="geometry" />
        </mxCell>
        <mxCell id="WMfJV7rpTqCxI9mNvm0j-88" value="&lt;span style=&quot;font-size: 16px;&quot;&gt;&lt;b&gt;등급 계산&lt;/b&gt;&lt;/span&gt;" style="whiteSpace=wrap;html=1;strokeWidth=1;rounded=0;shape=ellipse;perimeter=ellipsePerimeter;" vertex="1" parent="WIyWlLk6GJQsqaUBKTNV-1">
          <mxGeometry x="209.5" y="1885" width="109" height="70" as="geometry" />
        </mxCell>
        <mxCell id="WMfJV7rpTqCxI9mNvm0j-94" value="YES" style="text;html=1;align=center;verticalAlign=middle;whiteSpace=wrap;rounded=0;" vertex="1" parent="WIyWlLk6GJQsqaUBKTNV-1">
          <mxGeometry x="210" y="1515" width="60" height="30" as="geometry" />
        </mxCell>
        <mxCell id="WMfJV7rpTqCxI9mNvm0j-95" value="YES" style="text;html=1;align=center;verticalAlign=middle;whiteSpace=wrap;rounded=0;" vertex="1" parent="WIyWlLk6GJQsqaUBKTNV-1">
          <mxGeometry x="210" y="1680" width="60" height="30" as="geometry" />
        </mxCell>
        <mxCell id="WMfJV7rpTqCxI9mNvm0j-96" value="YES" style="text;html=1;align=center;verticalAlign=middle;whiteSpace=wrap;rounded=0;" vertex="1" parent="WIyWlLk6GJQsqaUBKTNV-1">
          <mxGeometry x="209.5" y="1850" width="60" height="30" as="geometry" />
        </mxCell>
        <mxCell id="WMfJV7rpTqCxI9mNvm0j-97" value="NO" style="text;html=1;align=center;verticalAlign=middle;whiteSpace=wrap;rounded=0;" vertex="1" parent="WIyWlLk6GJQsqaUBKTNV-1">
          <mxGeometry x="306" y="1448" width="60" height="30" as="geometry" />
        </mxCell>
        <mxCell id="WMfJV7rpTqCxI9mNvm0j-98" value="NO" style="text;html=1;align=center;verticalAlign=middle;whiteSpace=wrap;rounded=0;" vertex="1" parent="WIyWlLk6GJQsqaUBKTNV-1">
          <mxGeometry x="303" y="1606" width="60" height="30" as="geometry" />
        </mxCell>
        <mxCell id="WMfJV7rpTqCxI9mNvm0j-99" value="NO" style="text;html=1;align=center;verticalAlign=middle;whiteSpace=wrap;rounded=0;" vertex="1" parent="WIyWlLk6GJQsqaUBKTNV-1">
          <mxGeometry x="304" y="1766" width="60" height="30" as="geometry" />
        </mxCell>
      </root>
    </mxGraphModel>
  </diagram>
</mxfile>
